<?xml version="1.0" standalone="no"?>
<!DOCTYPE svg PUBLIC "-//W3C//DTD SVG 20010904//EN"
 "http://www.w3.org/TR/2001/REC-SVG-20010904/DTD/svg10.dtd">
<svg version="1.0" xmlns="http://www.w3.org/2000/svg"
 width="128.000000pt" height="128.000000pt" viewBox="0 0 128.000000 128.000000"
 preserveAspectRatio="xMidYMid meet">
<metadata>
Created by potrace 1.14, written by Peter Selinger 2001-2017
</metadata>
<g transform="translate(0.000000,128.000000) scale(0.100000,-0.100000)"
fill="#000000" stroke="none">
<path d="M595 1055 c-28 -25 -78 -61 -112 -82 -84 -48 -111 -79 -155 -175 -16
-36 -41 -40 -96 -16 -41 17 -53 18 -98 8 -72 -15 -134 -73 -134 -122 0 -34 2
-36 43 -46 102 -25 121 -24 183 3 32 14 62 33 67 41 14 25 32 15 45 -26 25
-80 12 -116 -59 -163 -33 -23 -93 -43 -111 -39 -4 1 -28 -7 -53 -18 -26 -11
-62 -20 -81 -20 l-34 0 0 -200 0 -200 24 0 c14 0 37 5 52 10 19 8 30 8 38 0 6
-6 76 -10 182 -10 145 0 174 2 185 16 20 24 16 77 -9 109 -12 15 -22 35 -22
44 0 9 20 49 45 89 25 40 45 76 45 81 0 6 9 25 20 44 19 33 20 37 5 78 -8 24
-15 62 -15 84 0 22 -7 61 -14 87 -14 45 -14 47 10 73 14 15 27 40 31 55 3 17
13 30 25 33 20 6 35 -14 24 -31 -3 -6 1 -23 9 -38 8 -16 15 -35 15 -42 0 -7 5
-23 12 -35 7 -12 14 -32 15 -44 2 -12 10 -41 18 -64 8 -23 15 -56 15 -73 0
-21 3 -27 9 -17 6 10 10 10 16 1 4 -6 0 -19 -9 -29 -9 -10 -16 -29 -16 -43 0
-14 -6 -43 -13 -64 -13 -41 -9 -117 13 -189 6 -22 16 -59 21 -81 l10 -42 270
-1 269 -2 0 214 0 214 -27 13 c-18 8 -81 14 -168 16 l-140 3 -12 28 c-17 39
-16 103 3 154 8 24 17 71 18 103 2 33 8 62 14 64 6 2 29 -9 51 -23 37 -25 44
-26 88 -17 72 16 97 27 137 62 47 42 47 58 -3 56 -30 -1 -49 -11 -81 -40 -36
-32 -47 -37 -83 -35 -23 1 -49 9 -58 16 -16 13 -15 16 7 40 14 15 23 34 22 43
-3 15 8 32 45 70 11 11 37 20 64 22 49 4 61 -3 38 -22 -10 -9 -15 -9 -15 -1 0
6 -11 10 -24 9 -14 -1 -23 -5 -20 -9 2 -4 0 -10 -6 -14 -5 -3 -10 -1 -10 5 0
8 -6 8 -20 0 -24 -13 -26 -36 -4 -48 11 -6 13 -11 5 -16 -6 -4 -11 -20 -11
-37 0 -16 -4 -29 -10 -29 -5 0 -10 -4 -10 -10 0 -17 40 -11 47 8 13 36 45 72
64 72 11 0 17 5 14 10 -12 20 6 47 46 69 22 13 38 28 36 34 -5 16 -129 15
-183 -1 -52 -15 -134 -70 -134 -89 0 -13 -10 -14 -67 -8 -38 4 -95 8 -128 9
-62 1 -84 13 -85 48 0 9 -5 18 -11 20 -13 4 6 58 21 58 16 0 12 27 -6 34 -29
11 -39 6 -89 -39z m515 -105 c0 -5 -5 -10 -11 -10 -5 0 -7 5 -4 10 3 6 8 10
11 10 2 0 4 -4 4 -10z m-636 -115 c-9 -14 -21 -25 -27 -25 -6 0 0 11 13 25 13
14 25 25 27 25 2 0 -4 -11 -13 -25z m217 -67 c9 -19 9 -21 -2 -10 -7 6 -22 12
-33 13 -21 0 -21 0 -1 9 11 5 21 9 22 9 1 1 8 -9 14 -21z m-442 -29 c25 -23
31 -33 21 -39 -22 -13 -90 11 -90 33 0 8 3 8 12 -1 7 -7 17 -12 23 -12 16 1
-38 40 -55 40 -8 0 -27 -7 -42 -14 -16 -8 -28 -11 -28 -6 0 12 49 28 90 29 26
1 44 -7 69 -30z m556 -209 c17 0 36 5 43 12 9 9 12 9 12 0 0 -21 -46 -32 -80
-21 -16 6 -30 16 -30 22 0 7 4 7 12 -1 7 -7 26 -12 43 -12z m5 -184 c0 -3 -4
-8 -10 -11 -5 -3 -10 -1 -10 4 0 6 5 11 10 11 6 0 10 -2 10 -4z"/>
<path d="M1220 943 c-13 -15 -12 -16 4 -10 10 4 20 7 22 7 2 0 4 5 4 10 0 15
-13 12 -30 -7z"/>
<path d="M550 636 c0 -8 4 -17 9 -20 5 -4 7 3 4 14 -6 23 -13 26 -13 6z"/>
</g>
</svg>
