<?xml version="1.0" encoding="utf-8"?>
<!-- Generator: Adobe Illustrator 26.0.1, SVG Export Plug-In . SVG Version: 6.00 Build 0)  -->
<svg version="1.2" baseProfile="tiny" id="Layer_1" xmlns="http://www.w3.org/2000/svg" xmlns:xlink="http://www.w3.org/1999/xlink"
	 x="0px" y="0px" viewBox="0 0 499.1 161.4" overflow="visible" xml:space="preserve">
<g>
	<path fill="#6B6C6F" d="M0,126.1l11.5-24c10.6,6.2,22.8,11.1,35.7,11.1c8.8,0,13.1-2.3,13.1-7.6c0-4.1-3-6.2-9.2-9.2L32,88.1
		c-16.8-7.4-24-18-24-31.8C8.1,35.5,22.6,24,49.3,24c12.2,0,25.4,2.8,37.8,7.4l-9.5,23.7c-9.7-4.1-20.3-7.4-30-7.4
		c-8.3,0-10.8,2.5-10.8,6.5c0,4.1,2.8,6.5,10.1,9.7l19.1,8.3c15,6.2,23.5,15.2,23.5,31.1c0,23.5-17.5,34.1-44,34.1
		C30.9,137.4,14.1,133.9,0,126.1z"/>
	<path fill="#6B6C6F" d="M217.4,80.7c0,33.4-25.1,56.7-59,56.7s-59-23.3-59-56.7s25.1-56.7,59-56.7S217.4,47.3,217.4,80.7z
		 M128.4,80.7c0,18.2,12.7,30,30,30s29.7-11.8,29.7-30s-12.4-30-29.7-30S128.4,62.5,128.4,80.7z"/>
	<path fill="#6B6C6F" d="M264.4,0v161.4h-28.4V0H264.4z"/>
	<path fill="#6B6C6F" d="M401.6,80.7c0,33.4-25.1,56.7-59,56.7c-33.9,0-59-23.3-59-56.7s25.1-56.7,59-56.7
		C376.5,24,401.6,47.3,401.6,80.7z M312.6,80.7c0,18.2,12.7,30,30,30c17.3,0,29.7-11.8,29.7-30s-12.5-30-29.7-30
		C325.3,50.7,312.6,62.5,312.6,80.7z"/>
	<path fill="#6B6C6F" d="M409.4,126.1l11.5-24c10.6,6.2,22.8,11.1,35.7,11.1c8.8,0,13.1-2.3,13.1-7.6c0-4.1-3-6.2-9.2-9.2l-19.1-8.3
		c-16.8-7.4-24-18-24-31.8c0-20.7,14.5-32.3,41.3-32.3c12.2,0,25.4,2.8,37.8,7.4l-9.5,23.7c-9.7-4.1-20.3-7.4-30-7.4
		c-8.3,0-10.8,2.5-10.8,6.5c0,4.1,2.8,6.5,10.1,9.7l19.1,8.3c15,6.2,23.5,15.2,23.5,31.1c0,23.5-17.5,34.1-44,34.1
		C440.3,137.4,423.5,133.9,409.4,126.1z"/>
</g>
<g>
</g>
<g>
</g>
<g>
</g>
<g>
</g>
<g>
</g>
<g>
</g>
</svg>
